EMG
version=1
nRows=34
nColumns=17
inDegrees=no
endheader
time	EMG01_right_gast_med	EMG02_right_glut_max	EMG03_left_gast_med	EMG04_left_glut_max	EMG05_right_glut_med	EMG06_right_bic_fem	EMG07_right_rect_fem	EMG08_right_vast_lat	EMG09_right_vast_med	EMG10_right_tens_fasc_lat	EMG11_left_glut_med	EMG12_left_bic_fem	EMG13_left_rect_fem	EMG14_left_vast_lat	EMG15_left_vast_med	EMG16_left_tens_fasc_lat
      0.83000000	    235.80709839	    -40.19752121	     -2.30125856	    -74.04905701	    -40.82535553	    -39.44853592	      3.45992422	     -1.84859610	    -10.09333897	    -34.77293396	     -6.79284573	     -2.03703094	    -15.75790310	      4.47893858	     18.20047569	    117.22378540
      0.84000000	   -134.16009521	    -24.23715973	    -14.23107910	     -6.55438805	    -73.96514130	     -0.65475094	      6.34097576	     24.62014389	     -7.47890329	    -28.75561523	      5.42794228	    -15.50933075	    -22.23862457	      3.85230470	      1.26344013	     53.36465454
      0.85000000	   -554.02600098	     -8.66780758	    -11.35950375	     40.59600449	    -99.91362000	     10.39658546	      3.51495671	      3.63069940	    -18.74552727	    -18.53719139	     -1.98503327	      3.74379206	    -22.54039955	    -17.04040909	     15.64407921	     -8.06185150
      0.86000000	     71.59131622	     14.51955986	     -1.74070501	     50.56095123	     74.37039948	     10.18197155	     -4.22259235	     -8.42255402	     -4.84555340	    -13.14817905	      0.64388621	     20.48718834	     -3.12416077	    -21.75403595	     12.41787338	    -38.09952164
      0.87000000	    314.51733398	      5.81434917	    -10.33912086	     56.80913162	     15.64899540	     -3.85720253	     -5.91412258	    -16.48674965	      7.34545326	    -43.17335892	     15.77361679	     -4.24134111	    -28.85148239	     17.16491318	     -3.89194036	    -78.81332397
      0.88000000	   -370.24725342	     13.51497746	      3.12874293	    102.70234680	     55.63716888	    -35.04508209	     -7.39170647	    -21.11480141	     29.45374107	     52.94486237	    -17.35453796	    -24.41936684	     17.44910431	    -50.40128708	     22.31026840	   -108.42212677
      0.89000000	    573.70080566	     14.15216446	     -4.39798737	    132.50021362	     35.50539780	     -2.64587021	     13.80013180	     12.57938099	     32.91149902	     22.88836288	      6.87803316	    -40.32235336	    -31.58929062	     -8.56345654	     32.09806824	   -118.88086700
      0.90000000	    329.47186279	     25.12495613	     -8.16106892	     83.04050446	    140.99493408	    -15.69084358	    -19.72221375	    -10.42158604	     32.24177933	     17.28662109	     10.81292343	      8.78458786	      6.76094198	     13.19378948	     -9.06472588	   -134.81930542
      0.91000000	   -588.64617920	     24.46356964	      2.86086798	     24.56401253	     93.15931702	    -11.44567490	     -0.52489710	     -4.82577562	     13.20916653	     25.62528419	     -9.60203266	    -17.22981071	    -30.17215729	    -19.46921349	     29.36923027	   -203.18197632
      0.92000000	    180.14709473	     25.74581337	     16.31186295	    -10.63677788	     68.37789917	    -23.92173004	     -9.11478329	    -18.88342667	    -11.14028358	     48.97956085	     -8.89068794	    -42.39094925	      6.29917717	    -16.64641571	      3.68937683	   -293.26876831
      0.93000000	   -429.74423218	     -0.35197067	      9.97083092	    -20.34347916	     21.65581894	      6.09583235	     -1.91437459	     -2.31609964	    -46.22312927	    -22.35376549	     -6.29355860	    -39.72760391	    -69.34009552	    -61.22484207	     59.86588287	   -144.97254944
      0.94000000	    -57.11711502	     -6.00866508	     -9.55500984	    -19.11908340	     -7.61215591	      7.88046455	      4.61909246	    -16.30612183	    -51.42552567	    -55.36342621	     14.43873596	     -4.94007969	    -52.46348572	     72.59480286	     41.22731781	     88.32508850
      0.95000000	     85.33175659	     -2.70992136	      3.50111771	     14.19982910	     56.72559738	    -12.39646912	      8.74810219	    -14.47320652	    -42.94990921	    -97.44957733	     -2.96961522	     -2.66397572	      7.85933542	     76.67576599	     98.66625977	     81.43718719
      0.96000000	     55.80630493	      7.99527025	      5.60068464	      5.29258537	     71.05391693	     -3.59386873	    -21.88737488	    -13.93666935	    -29.39478683	    -26.54732895	      6.97798204	    -12.32882595	    -79.30500793	    -13.27540398	     36.41696167	     27.64801979
      0.97000000	     32.40728378	     18.01000977	    -16.84964561	     22.72860146	    -20.99816704	     -0.41594934	    -35.17045212	    -17.01207542	    -29.82666016	    -59.29595566	      8.64055824	     66.19380188	      1.79121161	     56.09352493	     51.97291183	     56.01831818
      0.98000000	      9.87421227	     17.62573242	     -9.72007084	    -15.42613602	    -94.52420044	    -10.43151855	     11.58475018	    -12.87281418	    -40.57067871	     -4.30114746	    -94.52587128	     29.29471207	     -8.91607189	      3.69856405	    -58.48838043	     15.51735687
      0.99000000	      4.35874748	     14.79097652	     -2.19003987	     -8.63997650	   -127.45307922	     -4.57788849	     19.24454498	     -5.55162048	    -35.61452103	      9.45050907	     -7.07954502	     11.05402565	     11.39268494	     23.76859474	      2.31334114	     37.52947998
      1.00000000	      7.73602200	     18.74995995	     27.84965706	     74.85278320	    356.86059570	    -13.74218845	     -0.27438223	     -8.11178684	    -46.26196289	     13.03711987	     49.50853729	     11.08656597	      6.38136864	     -8.78990078	    -50.34408188	     33.90116119
      1.01000000	     17.47425270	     16.82487679	    -45.05263519	    157.51826477	    556.71716309	     -7.51793146	      1.94431520	     -1.82319617	    -20.37720108	     31.43946838	    -36.36936188	     95.85249329	     20.59054756	      0.09702778	     68.78701782	     21.73435974
      1.02000000	     -8.26199150	      4.00868034	    -61.20825195	    124.06710815	     43.25224304	     -9.10035419	      2.89305711	     -9.28084183	    -11.51602364	    114.30888367	     18.04901886	      1.69110751	     51.07730865	   -146.34704590	   -163.97227478	    -81.36158752
      1.03000000	    -13.31513977	      5.68796635	    -27.73443604	      1.54088712	   -445.50427246	    -15.09310341	     -5.35425329	     -3.49858522	     -0.04787725	    -78.37251282	      8.81178284	      0.49682379	     13.89275169	    -66.10319519	   -131.46279907	   -138.92597961
      1.04000000	    -13.30837536	      3.45390892	      8.63198185	   -101.48544312	   -462.92370605	      3.42491770	     -6.47438812	     -1.52520025	     33.06079483	    -58.05020142	     79.84771729	     44.85770416	     21.62339973	     -1.49553251	     30.50011444	    -86.14951324
      1.05000000	    -17.84575844	      9.93851471	     20.12426186	   -124.43099976	     -5.52676392	     10.49085808	      7.47294664	     18.31944084	     48.10064697	    -24.73960495	    118.69832611	    -26.50481033	     35.69461823	     85.04774475	    166.77555847	   -223.18272400
      1.06000000	     -9.34853077	      3.60230875	     23.10742188	   -121.42295074	    285.26715088	     19.82535934	     10.60844231	      9.16602707	     61.24112701	    -23.00511551	    -85.95508575	    -48.90200043	    -92.22323608	    -16.65171051	     50.70408630	   -561.32537842
      1.07000000	    -12.05393028	    -18.40296745	     14.79900742	    -48.89214706	     71.46528625	     11.61943150	     -3.22836280	      1.17810273	     40.16664886	    -31.89529419	     18.64871216	    -24.29595375	     33.71692657	     -2.47209740	    257.23361206	   -287.49978638
      1.08000000	     -1.50613916	     -8.43305779	    -18.46335220	    -34.08205414	   -335.11254883	     27.00719833	    -15.88769054	      0.32741868	     10.54167557	    -31.62567520	     39.17429352	     -3.20072222	    -32.55799103	     19.33976936	    167.24781799	    180.05648804
      1.09000000	      7.28425550	      0.89717007	    -20.55012894	    -23.25917244	   -487.27044678	     16.24726868	    -10.67592049	     12.20536804	     10.01650429	      4.76655531	    -18.47640228	     15.97929382	     -0.17557478	     52.93826294	     57.09094238	    231.79745483
      1.10000000	     16.33777809	     26.42356873	    -16.25317383	     62.39391708	   -155.78439331	      4.01882267	    -14.40050220	     56.28367996	     57.68661499	     14.06654263	    -42.63792801	     33.11096954	      8.31260204	      2.36133218	    -70.65196991	    237.53137207
      1.11000000	     -0.32913268	     84.20425415	     25.03107071	    126.68187714	    484.18338013	    -13.21766281	    -25.00615692	     82.15679932	     47.78479767	     -3.03610563	     -2.93811965	     46.41843796	     41.46678543	    -44.14318848	   -198.64833069	    216.15518188
      1.12000000	    -26.79472160	     85.31105804	     20.64979935	    127.27320099	    567.67022705	      9.18057251	      4.37643766	     21.96631813	     -4.64058590	    -49.98508453	    -15.33026123	     12.30425453	      1.08525205	    -69.81096649	   -367.50280762	    157.53625488
      1.13000000	    -45.94715118	     44.54568481	    -28.06032562	     69.71623230	    174.89468384	     18.52581215	      0.94054985	    -30.87122726	   -109.48744965	   -154.30697632	    -14.76981544	     -5.67980289	     14.04454422	     -5.56124878	   -189.81181335	    111.12554932
      1.14000000	    -91.22441101	   -108.77693176	    -84.08463287	      4.00152445	   -258.85455322	    -85.91286469	     -9.82718277	    -68.41318512	   -145.99736023	    -79.56252289	     26.68680382	    -11.21595478	     37.33669281	     13.60540962	    -46.11697388	    129.35455322
      1.15000000	    -79.98181915	   -389.63357544	    -20.89858818	    -71.36500549	   -383.90930176	    -53.32656860	     15.07733917	    -80.36834717	    -93.49517822	      0.61470151	    -10.66935539	    -12.35814381	     21.46469116	      0.14587474	    -33.18262482	    123.66139984
      1.16000000	    -61.60848618	   -476.80181885	    -34.54551315	   -150.44287109	   -214.04325867	    -65.49143219	     13.56035709	    -75.64466858	    -46.92545319	     36.78771591	     -0.92719114	     -6.53960609	     40.50798035	    -38.26601410	    -11.62305927	    380.30563354
